<?xml version="1.0" encoding="UTF-8" standalone="no"?>
<!-- Created with Inkscape (http://www.inkscape.org/) -->

<svg
   xmlns:dc="http://purl.org/dc/elements/1.1/"
   xmlns:cc="http://creativecommons.org/ns#"
   xmlns:rdf="http://www.w3.org/1999/02/22-rdf-syntax-ns#"
   xmlns:svg="http://www.w3.org/2000/svg"
   xmlns="http://www.w3.org/2000/svg"
   xmlns:sodipodi="http://sodipodi.sourceforge.net/DTD/sodipodi-0.dtd"
   xmlns:inkscape="http://www.inkscape.org/namespaces/inkscape"
   version="1.1"
   id="svg2"
   xml:space="preserve"
   width="489.71732"
   height="204.87453"
   viewBox="0 0 489.71731 204.87453"
   sodipodi:docname="logo_short.svg"
   inkscape:version="0.48.5 r10040"><metadata
     id="metadata8"><rdf:RDF><cc:Work
         rdf:about=""><dc:format>image/svg+xml</dc:format><dc:type
           rdf:resource="http://purl.org/dc/dcmitype/StillImage" /><dc:title></dc:title></cc:Work></rdf:RDF></metadata><defs
     id="defs6"><clipPath
       clipPathUnits="userSpaceOnUse"
       id="clipPath18"><path
         d="M 0,595.28 H 841.89 V 0 H 0 Z"
         id="path16"
         inkscape:connector-curvature="0" /></clipPath><clipPath
       clipPathUnits="userSpaceOnUse"
       id="clipPath186"><path
         d="M 0,595.28 H 841.89 V 0 H 0 Z"
         id="path184"
         inkscape:connector-curvature="0" /></clipPath></defs><sodipodi:namedview
     pagecolor="#ffffff"
     bordercolor="#666666"
     borderopacity="1"
     objecttolerance="10"
     gridtolerance="10"
     guidetolerance="10"
     inkscape:pageopacity="0"
     inkscape:pageshadow="2"
     inkscape:window-width="1440"
     inkscape:window-height="856"
     id="namedview4"
     showgrid="false"
     inkscape:zoom="1.6820038"
     inkscape:cx="260.78087"
     inkscape:cy="133.21514"
     inkscape:window-x="0"
     inkscape:window-y="0"
     inkscape:window-maximized="0"
     inkscape:current-layer="g10"
     fit-margin-top="0"
     fit-margin-left="0"
     fit-margin-right="0"
     fit-margin-bottom="0" /><g
     id="g10"
     inkscape:groupmode="layer"
     inkscape:label="LogoTCS4F03-1"
     transform="matrix(1.3333333,0,0,-1.3333333,-559.30199,533.84305)"><g
       id="g1595"><g
         transform="translate(518.4863,349.3032)"
         id="g100"><path
           inkscape:connector-curvature="0"
           id="path102"
           style="fill:#004b1e;fill-opacity:1;fill-rule:nonzero;stroke:none"
           d="M 0,0 C 1.118,-0.141 1.49,1.51 0.822,2.143 0.27,2.146 -0.05,1.917 -0.331,1.649 0.025,1.344 0.017,0.677 0,0" /></g><g
         transform="translate(505.46,364.3057)"
         id="g104"><path
           inkscape:connector-curvature="0"
           id="path106"
           style="fill:#004b1e;fill-opacity:1;fill-rule:nonzero;stroke:none"
           d="M 0,0 C 0.192,0.477 -0.228,1.137 0.328,1.483 -0.98,1.96 -1.515,0.459 -3.13,1.155 -3.287,0.342 -2.928,0.035 -2.635,-0.331 -3.06,-0.509 -3.428,-0.748 -3.624,-1.153 -2.312,-2.343 -0.605,-1.535 0,0" /></g><g
         transform="translate(519.3086,351.7773)"
         id="g108"><path
           inkscape:connector-curvature="0"
           id="path110"
           style="fill:#004b1e;fill-opacity:1;fill-rule:nonzero;stroke:none"
           d="M 0,0 C 0.286,0.404 -0.262,1.079 -0.822,1.153 -0.82,0.715 -0.886,0.211 -0.661,0 Z" /></g><g
         transform="translate(456.668,366.6123)"
         id="g112"><path
           inkscape:connector-curvature="0"
           id="path114"
           style="fill:#004b1e;fill-opacity:1;fill-rule:nonzero;stroke:none"
           d="m 0,0 c -0.942,0.436 -2.431,0.322 -3.795,0.33 0.181,0.535 0.805,0.622 1.156,0.989 -0.471,0.355 -0.835,0.819 -1.814,0.66 -0.445,0.986 -1.744,1.112 -2.968,1.318 -0.108,-0.601 0.357,-0.63 0.328,-1.154 -0.689,-0.299 -1.379,-0.599 -1.978,-0.987 0.102,0.509 1.031,1.049 0.497,1.648 -0.703,-0.27 -2.283,-1.735 -2.146,-0.825 -0.691,-0.654 -0.082,-1.581 -0.497,-2.474 -0.801,0.299 -0.218,0.645 -0.161,1.32 -0.413,-0.026 -0.509,0.259 -0.825,0.331 -0.319,-1.002 -1.433,-1.204 -1.485,-2.473 0.214,-0.425 0.875,0.382 0.988,0 -0.277,-0.325 -0.949,-0.259 -0.821,-0.99 1.494,0.485 3.09,0.864 4.45,1.483 0.388,0.546 0.642,1.227 1.486,1.32 0.032,-0.129 0.136,-0.191 0.328,-0.166 0.365,-1.345 0.084,-3.05 -0.164,-4.285 -0.879,-0.497 -1.692,-1.054 -2.474,-1.651 1.128,-0.833 3.824,-1.151 5.442,-0.49 0.014,0.781 -0.758,0.78 -0.825,1.479 0.37,0.237 0.679,0.53 0.989,0.825 C -5.278,-0.108 -0.074,-2.624 0,0" /></g><g
         transform="translate(483.04,308.0894)"
         id="g116"><path
           inkscape:connector-curvature="0"
           id="path118"
           style="fill:#004b1e;fill-opacity:1;fill-rule:nonzero;stroke:none"
           d="m 0,0 c -1.177,1.691 -6.324,2.935 -9.724,2.804 -0.513,-0.261 -1.052,-0.491 -1.483,-0.825 -0.331,1.499 -2.947,2.459 -4.124,1.153 0.187,1.121 -1.368,0.499 -2.143,0.659 -0.468,3.002 -3.375,4.923 -6.923,3.791 -1.082,0.678 -2.087,1.433 -3.793,1.485 -0.774,2.816 -3.376,-0.166 -5.439,0.658 -0.844,-0.526 -1.379,-1.368 -2.309,-1.811 -0.223,0.836 0.391,1.686 0,2.14 -0.818,-0.497 -1.104,-1.532 -2.309,-1.647 0.525,-1.356 -0.591,-1.596 -0.825,-2.638 -0.364,-0.07 -0.891,0.51 -0.988,0.165 0.88,-1.154 0.913,-2.841 1.157,-4.453 0.243,-1.639 0.696,-3.484 0.656,-4.944 -0.061,-2.286 0.942,-3.053 2.476,-4.614 1.118,-1.144 1.987,-2.33 3.131,-3.134 1.934,-1.36 4.627,-1.657 6.268,-3.294 0.87,-4.591 3.54,-8.333 5.11,-12.531 1.585,-4.256 3.278,-8.277 5.931,-11.703 0.038,0.309 -0.188,0.361 -0.166,0.658 1.093,-0.778 1.639,-2.101 1.98,-3.63 -0.097,-0.829 -0.745,-1.046 -0.333,-1.977 0.46,0.052 1.426,0.436 1.651,0.165 0.09,-0.854 -0.216,-1.319 -0.328,-1.977 1.36,-0.505 2.032,-2.44 3.463,-3.461 0.142,-0.104 0.686,-0.149 0.989,-0.331 0.288,-0.177 0.462,-0.555 0.658,-0.658 2.489,-1.328 5.105,-0.271 7.417,0.989 -7.586,-0.057 -6.582,8.469 -10.057,12.527 1.829,-0.285 2.129,2.645 0.826,3.132 2.991,-0.222 3.106,4.266 0.825,4.947 1.071,-0.164 1.936,-0.554 2.968,-0.333 1.136,0.811 0.537,3.243 0.328,4.618 0.539,0.065 1.069,0.144 1.153,0.661 -0.017,1.804 -1.646,2.098 -1.481,3.627 0.093,0.869 1.486,1.993 2.47,2.637 1.154,0.751 2.621,1.166 3.463,1.814 0.161,3.137 -0.903,6 -1.481,8.902 C 0.825,-5.299 1.108,-1.587 0,0" /></g><g
         transform="translate(435.7285,363.646)"
         id="g120"><path
           inkscape:connector-curvature="0"
           id="path122"
           style="fill:#004b1e;fill-opacity:1;fill-rule:nonzero;stroke:none"
           d="m 0,0 c -0.823,0.41 -1.677,-0.059 -1.484,-1.153 -2.11,1.329 -4.075,-1.297 -5.277,-2.473 0.79,-0.232 1.493,0.474 1.979,0 C -5.924,-3.801 -7.045,-4 -7.42,-4.947 c 0.617,-0.464 1.48,0.307 1.65,-0.491 1.618,1.674 5.327,1.264 6.592,3.294 C 0.091,-1.887 -0.038,-1.026 0,0" /></g><g
         transform="translate(439.8486,364.8003)"
         id="g124"><path
           inkscape:connector-curvature="0"
           id="path126"
           style="fill:#004b1e;fill-opacity:1;fill-rule:nonzero;stroke:none"
           d="M 0,0 C 0.137,0.467 -0.231,0.427 -0.166,0.824 0.388,0.66 0.378,1.054 0.331,1.485 -0.44,1.71 -1.619,1.05 -1.483,-0.167 c -0.746,0.143 -1.027,-0.18 -1.154,-0.658 0.748,0.14 0.615,-0.707 1.154,-0.659 0.463,0.041 0.712,1.657 1.483,1.153 -0.466,-0.404 -1.099,-1.358 -0.658,-2.143 1.069,-0.079 0.792,1.186 1.814,1.153 C 0.813,1.054 2.598,1.303 3.299,2.637 0.992,2.964 1.165,0.809 0,0" /></g><g
         transform="translate(435.5615,364.3057)"
         id="g128"><path
           inkscape:connector-curvature="0"
           id="path130"
           style="fill:#004b1e;fill-opacity:1;fill-rule:nonzero;stroke:none"
           d="M 0,0 C 0.221,-0.002 0.152,-0.29 0.331,-0.331 0.263,0.234 0.825,0.166 0.989,0.495 0.624,0.366 0.094,0.398 0,0" /></g><g
         transform="translate(475.7871,389.8569)"
         id="g132"><path
           inkscape:connector-curvature="0"
           id="path134"
           style="fill:#004b1e;fill-opacity:1;fill-rule:nonzero;stroke:none"
           d="m 0,0 c -1.008,-0.912 -2.813,-1.032 -3.629,-2.141 -1.666,-0.558 -3.202,-1.756 -4.449,-2.968 -0.449,-0.436 -1.142,-0.286 -1.812,-0.496 -1.193,-0.371 -1.971,-1.061 -3.133,-1.481 0.002,0.09 -0.134,0.186 -0.165,0 0.202,-0.037 0.101,-0.185 0,-0.332 -2.189,-1.066 -4.219,-2.874 -5.769,-4.45 -0.532,-0.542 -1.39,-0.983 -1.319,-1.815 0.676,0.421 1.607,0.593 2.47,0.826 -0.384,-0.554 -1.683,-1.057 -1.313,-1.814 1.477,0.412 5.169,2.029 5.6,0.328 0.26,-1.013 -1.169,-1.412 -0.823,-2.305 1.06,0.053 1.74,0.915 2.31,-0.165 -0.861,0.034 -1.564,-0.086 -1.817,-0.66 0.37,-0.463 1.439,0.333 1.65,0 -0.375,-0.688 -1.532,-1.178 -1.81,-2.309 -0.839,-3.355 0.793,-7.801 4.447,-5.605 2.928,7.403 9.157,11.505 15.333,15.661 -0.557,-0.109 -1.542,-0.646 -2.144,-0.165 0.321,1.112 2.566,0.292 3.134,1.156 -0.248,1.072 -1.788,0.849 -2.64,1.317 1.915,0.832 3.835,1.663 4.618,3.627 -0.428,0.535 -1.439,-0.48 -1.65,0.329 0.633,0.25 1.198,0.564 1.486,1.154 C 8.284,-2.214 7.604,-2.507 7.581,-2.141 9.077,-0.56 11.032,0.566 12.696,1.98 10.763,1.88 9.822,0.784 7.748,0.827 4.988,2.354 3.006,0.346 0,0" /></g><g
         transform="translate(457.3252,349.1367)"
         id="g136"><path
           inkscape:connector-curvature="0"
           id="path138"
           style="fill:#004b1e;fill-opacity:1;fill-rule:nonzero;stroke:none"
           d="M 0,0 C 0.337,0.05 0.323,0.448 0.656,0.496 0.541,1.148 0.398,1.773 0.164,2.309 -0.261,2.073 -0.868,2.023 -1.322,1.815 -0.865,2.253 -1.454,2.234 -1.65,2.474 -1.369,2.75 -0.437,3.227 -0.825,3.627 -2.232,2.509 -3.54,1.29 -3.793,-0.988 c 1.219,0.212 1.659,1.2 2.799,1.484 C -0.589,0.406 -0.638,-0.143 0,0" /></g><g
         transform="translate(441.8252,367.7681)"
         id="g140"><path
           inkscape:connector-curvature="0"
           id="path142"
           style="fill:#004b1e;fill-opacity:1;fill-rule:nonzero;stroke:none"
           d="M 0,0 C 0.241,0.419 1.003,0.318 1.155,0.823 0.769,1.707 -0.432,0.412 0,0" /></g><g
         transform="translate(441.6611,323.917)"
         id="g144"><path
           inkscape:connector-curvature="0"
           id="path146"
           style="fill:#004b1e;fill-opacity:1;fill-rule:nonzero;stroke:none"
           d="M 0,0 C 0.143,-1.052 2.059,-1.289 2.64,-0.496 1.184,0.569 -2.933,1.014 -3.296,-0.825 -2.447,-0.3 -1.458,0.084 0,0" /></g><g
         transform="translate(438.5293,315.0142)"
         id="g148"><path
           inkscape:connector-curvature="0"
           id="path150"
           style="fill:#004b1e;fill-opacity:1;fill-rule:nonzero;stroke:none"
           d="M 0,0 C 0.274,-1.274 3.523,-2.245 4.123,-0.661 2.792,-0.397 1.688,0.094 0,0" /></g><g
         transform="translate(483.5352,377.3286)"
         id="g152"><path
           inkscape:connector-curvature="0"
           id="path154"
           style="fill:#004b1e;fill-opacity:1;fill-rule:nonzero;stroke:none"
           d="m 0,0 c -1.222,-0.574 -2.44,-0.698 -2.802,-1.484 0.35,0.154 1.13,0.723 1.321,0.494 -0.345,-0.367 -1.028,-0.402 -1.157,-0.987 0.507,-0.12 0.486,0.285 0.992,0.163 -0.086,-0.243 -0.247,-0.415 -0.331,-0.657 2.495,0.908 5.687,1.123 6.264,3.954 C 2.337,2.002 1.448,0.68 0,0" /></g><g
         transform="translate(443.9678,370.2412)"
         id="g156"><path
           inkscape:connector-curvature="0"
           id="path158"
           style="fill:#004b1e;fill-opacity:1;fill-rule:nonzero;stroke:none"
           d="M 0,0 C 0.221,-0.617 -0.685,-0.943 -0.326,-1.156 1.14,-0.433 3.226,0.129 4.618,0.823 5.019,1.022 5.872,1.34 5.771,1.811 4.439,1.112 2.508,0.135 0.991,0.164 3.16,0.797 4.436,2.324 6.766,2.802 7.67,3.764 8.261,5.041 9.564,5.604 c -0.145,0.484 -0.145,0.509 0,0.989 2.565,2.271 5.689,3.983 8.737,5.77 0.174,0.01 0.131,0.211 -0.164,0.166 C 13.54,10.64 7.529,10.166 4.618,6.593 4.548,6.027 4.684,5.667 4.784,5.273 2.771,5.149 0.244,4.326 1.155,2.309 2.672,2.277 3.249,3.18 4.618,3.294 4.027,2.581 2.855,1.97 1.816,1.481 0.75,0.981 -0.715,0.871 -0.82,-0.167 -0.715,-0.028 -0.052,0.351 0,0" /></g><g
         transform="translate(519.3086,386.8906)"
         id="g160"><path
           inkscape:connector-curvature="0"
           id="path162"
           style="fill:#004b1e;fill-opacity:1;fill-rule:nonzero;stroke:none"
           d="M 0,0 C 0.244,-0.627 -0.735,-0.033 -0.492,-0.659 1.264,-0.552 3.465,-0.878 4.946,-0.496 3.84,-0.283 3.108,0.305 2.307,0.825 3.709,0.431 5.734,0.644 6.269,1.65 2.872,1.232 -0.815,2.126 -2.637,0.164 -2.198,-0.555 -0.229,0.057 0,0" /></g><g
         transform="translate(441.8252,370.5693)"
         id="g164"><path
           inkscape:connector-curvature="0"
           id="path166"
           style="fill:#004b1e;fill-opacity:1;fill-rule:nonzero;stroke:none"
           d="M 0,0 V 0.823 C -0.947,0.948 -1.388,0.567 -1.81,0.165 -1.088,-0.351 -0.919,0.315 0,0" /></g><g
         transform="translate(441.0049,368.9214)"
         id="g168"><path
           inkscape:connector-curvature="0"
           id="path170"
           style="fill:#004b1e;fill-opacity:1;fill-rule:nonzero;stroke:none"
           d="M 0,0 H -0.661 C -0.542,-0.677 -1.742,-0.559 -1.814,-1.484 -0.929,-1.879 0.323,-1.354 0,0" /></g><g
         transform="translate(506.2871,365.7886)"
         id="g172"><path
           inkscape:connector-curvature="0"
           id="path174"
           style="fill:#004b1e;fill-opacity:1;fill-rule:nonzero;stroke:none"
           d="M 0,0 C 1.104,0.217 1.719,-0.008 1.813,-1.155 1.418,-2.023 0.265,-2.132 0,-3.131 c 0.363,-0.243 1.226,0.019 1.317,-0.497 -0.822,0.003 -1.12,-0.524 -1.483,-0.987 2.121,0.03 3.474,-0.186 5.438,0 0.131,0.406 -0.126,1.639 0.168,2.306 C 4.25,-1.573 3.115,-0.782 2.637,0.659 2.52,0.984 1.716,0.619 1.648,0.99 2.323,1.14 2.792,1.497 2.966,2.143 2.265,2.155 1.814,2.419 0.989,2.308 1.207,2.691 1.458,3.047 1.813,3.297 0.471,3.625 -0.537,3.278 -0.499,1.814 0.197,1.365 0.631,0.58 0,0" /></g><g
         transform="translate(494.9785,400.3823)"
         id="g176"><path
           inkscape:connector-curvature="0"
           id="path178"
           style="fill:#004b1e;fill-opacity:1;fill-rule:nonzero;stroke:none"
           d="m 0,0 c -41.63,0 -75.502,-33.872 -75.502,-75.5 0,-41.633 33.872,-75.503 75.502,-75.503 0.167,0 0.629,0.003 0.629,0.003 v 0.687 c -0.176,-0.002 -0.453,-0.002 -0.629,-0.002 -41.18,0 -74.694,33.443 -74.809,74.594 2.352,-1.405 3.125,-4.467 5.005,-6.35 2.075,-2.075 6.281,-1.198 10.223,-1.649 1.885,-0.217 2.986,-1.271 4.451,-1.484 0.012,1.277 0.117,2.645 -0.494,3.297 -1.284,0.077 -2.136,-0.284 -3.132,-0.493 0.38,1.26 0.914,3.087 0.656,4.45 -1.369,-0.498 -2.77,-1.841 -2.798,-3.133 -0.498,0.08 -1.782,0.2 -2.801,0 -1.128,2.1 -1.846,4.382 -0.664,6.263 0.679,1.079 2.438,1.629 3.793,2.308 0.858,0.429 1.261,1.272 2.639,0.992 1.308,-0.269 1.214,-1.876 2.473,-2.475 -0.494,3.688 1.712,6.09 3.294,8.244 -0.722,0.417 -0.052,0.061 -0.162,0.66 -0.079,0.424 -0.574,1.017 -0.33,1.977 0.356,-0.139 0.264,-0.722 0.492,-0.99 0.6,1.618 1.863,3.07 3.465,4.123 0.623,1.792 1.995,2.841 2.968,4.287 0.286,-0.125 -0.556,-1.058 0,-1.486 1.816,0.822 2.716,2.56 3.79,4.125 -0.69,-0.031 -1.32,-1.537 -2.473,-1.652 -0.521,0.914 0.196,1.845 0.497,2.473 -1.313,-0.502 -3.235,-1.824 -4.452,-2.966 0.996,2.325 4.109,3.102 6.264,4.78 1.417,1.105 2.219,2.483 3.298,3.791 -0.563,-0.342 -1.514,-0.708 -2.309,-0.327 0.261,0.675 0.917,0.948 1.481,1.32 -1.605,0.532 -1.992,2.29 -2.306,4.118 -0.659,-1.263 -1.465,-2.382 -3.462,-2.307 0.187,1.028 1.57,2.228 0.164,2.968 -0.615,0.14 -1.063,-0.338 -1.482,-0.661 -1.712,-1.31 -4.037,-5.041 -5.11,-7.253 -0.572,-1.179 0.48,-4.174 -1.65,-4.617 -0.638,0.751 -0.178,2.221 0,3.132 -1.51,-0.847 -3.338,0.93 -4.947,-0.164 -0.426,0.395 0.199,2.164 -0.822,1.483 1.728,2.835 4.357,4.765 6.263,7.419 -0.121,0.373 -0.926,0.066 -1.32,0.165 0.906,1.037 7.682,3.565 5.277,5.771 -1.78,-0.528 -1.817,-2.799 -3.626,-3.298 -0.066,0.672 0.701,0.51 0.825,0.99 -2.064,1.742 -3.646,-1.846 -4.782,-3.134 -2.227,0.238 -4.391,-0.987 -6.264,-1.648 -0.201,0.048 -0.569,-0.474 -0.164,-0.495 -0.469,-0.242 -1.406,0.462 -2.312,0.331 -0.805,0.013 0.375,0.377 -0.164,0.661 -0.628,-0.078 -1.071,-0.337 -1.673,-0.441 0.666,1.346 1.364,2.667 2.102,3.968 0.805,0.573 2.497,0.983 1.389,1.912 -0.117,-0.014 -0.223,-0.053 -0.326,-0.096 0.365,0.601 0.74,1.194 1.12,1.786 0.089,-0.204 -0.497,-0.599 -0.464,-0.867 0.778,-0.066 0.862,0.564 1.645,0.495 0.671,0.049 0.087,-0.344 0.164,-0.659 1.705,0.658 3.477,1.247 4.286,2.803 -1.353,-0.074 -1.681,-1.175 -2.968,-1.32 0.124,0.155 0.3,0.252 0.497,0.329 -0.727,0.009 -0.98,0.1 -1.153,0.825 -0.394,-0.198 -0.868,-0.313 -1.281,-0.498 13.44,20.036 36.295,33.251 62.179,33.251 20.908,0 39.842,-8.625 53.431,-22.501 -0.774,-0.35 -1.669,0.064 -2.394,-0.527 -0.81,-0.002 0.172,0.764 -0.328,0.992 -1.465,-0.458 -2.965,-0.885 -3.134,-2.638 -1.217,0.413 -1.031,2.798 -2.804,2.142 0.181,-0.755 0.375,-1.498 0.662,-2.142 -0.39,-0.82 -1.271,-1.148 -1.977,-1.648 -0.907,-0.084 -1.12,0.532 -1.98,0.494 -0.343,-0.301 0.351,-0.961 0.661,-1.154 -0.432,-0.15 -1.571,0.403 -2.143,0.66 -0.028,0.522 -0.375,0.724 -0.333,1.317 -0.429,0.337 -1.334,0.206 -1.317,0.992 1.69,-0.063 4.004,-1.513 5.112,-0.168 -0.931,2.641 -4.351,2.795 -7.752,2.969 -0.236,0.256 -0.345,0.642 -0.492,0.989 -0.67,0.348 -1.275,-0.145 -1.319,0.659 -0.397,-0.053 -0.73,-1.015 -0.988,-0.659 0.077,0.672 -0.447,0.024 -0.497,-0.168 -0.492,0.111 0.157,0.357 0,0.661 -0.924,-0.667 -4.637,0.021 -4.779,-1.977 -3.641,-0.042 -2.042,-5.321 -6.431,-4.615 -0.594,-0.446 -0.822,-1.266 -1.317,-1.815 0.137,-0.245 0.53,-0.239 0.823,-0.329 -0.068,-0.369 -0.811,-0.067 -1.155,-0.165 0.03,-0.816 0.412,-0.912 1.155,-0.659 -0.457,-0.515 -0.85,-0.974 -0.328,-1.65 0.727,-0.077 1.676,0.26 2.473,0.166 2.391,-0.284 3.08,-2.988 5.274,-3.461 0.919,0.71 -0.07,2.671 0.992,2.966 -1.034,4.269 1.439,5.735 4.449,6.432 -0.319,-1.386 -1.613,-1.796 -2.309,-2.806 0.01,-0.815 0.483,-1.164 0.497,-1.978 1.262,-1.527 3.768,-0.27 5.438,-0.495 -0.756,-1.437 -3.919,-0.477 -3.626,-2.967 -0.617,0.099 -0.809,0.62 -1.484,0.66 -1.017,-0.499 -0.084,-1.646 -0.328,-2.308 -0.084,-0.223 -0.802,-0.922 -0.994,-0.989 -0.032,-0.01 -0.877,0.502 -0.82,0.494 -0.553,0.064 -1.425,-0.606 -2.309,-0.659 -1.766,-0.107 -2.914,0.45 -3.631,1.485 v 2.142 c -0.903,-0.08 -1.322,-0.649 -1.81,-1.152 -0.171,-0.942 0.574,-0.968 0.661,-1.652 -1.852,-1.171 -3.497,-2.544 -5.769,-3.296 -0.48,-0.237 -0.683,-0.749 -0.828,-1.318 -1.19,0.035 -2.156,-0.15 -2.799,-0.661 -0.644,0.097 -1.261,0.552 -1.649,0 0.084,-2.171 5.196,-3.193 1.811,-5.273 -2.011,0.136 -4.707,1.452 -6.429,0.329 0.025,-1.435 -0.315,-3.686 -0.163,-5.77 0.355,-0.609 1.037,-0.336 1.813,-0.331 1.505,0.015 3.174,-1.045 5.109,-0.66 1.463,1.395 1.96,3.758 4.288,4.29 0.218,0.38 0.272,0.934 0.491,1.317 2.17,0.35 3.907,1.762 5.77,0.493 0.397,-0.268 0.572,-0.926 0.992,-1.317 1.489,-1.403 4.391,-2.002 4.783,-3.629 -0.819,-0.502 -2.038,-0.602 -3.135,-0.823 0.525,-0.519 1.454,-0.636 1.981,-1.152 0.677,1.078 1.514,1.994 1.976,3.294 0.478,0.046 0.507,-0.373 0.989,-0.327 -0.365,0.841 -1.826,2.019 -3.298,2.306 -0.396,1.143 -1.528,1.551 -2.145,2.475 2.438,1.521 4.159,-2.165 6.104,-2.803 0.446,-2.356 1.189,-4.415 3.46,-4.945 0.483,0.443 0.141,0.638 0,1.152 0.312,-0.07 0.412,-0.354 0.823,-0.331 0.176,0.666 -1.02,1.25 -1.32,1.979 0.305,0.936 1.848,0.648 2.804,0.494 -0.487,-1.068 1.883,-3.876 2.635,-4.119 0.46,-0.149 1.34,-0.313 1.65,0.329 1.983,-0.215 4.864,-0.107 5.112,-1.648 0.293,-1.801 -2.109,-1.547 -1.811,-3.792 0.386,-2.951 3.46,-4.569 4.615,-7.09 0.035,-0.076 0.167,-0.341 0.164,-0.331 0.72,-2.93 1.766,-5.971 3.791,-7.58 0.942,-0.751 2.19,-1.29 3.465,-0.826 0.642,0.233 1.09,0.917 1.811,1.485 2.108,1.654 7.64,2.867 6.43,6.594 -0.114,0.351 -1.523,2.928 -2.142,2.966 -0.797,0.05 -1.39,-1.965 -3.298,-1.813 -2.108,0.168 -1.325,2.125 -2.141,4.12 2.769,-0.562 5.584,-2.687 9.063,-3.13 0.516,-0.065 1.121,0.085 1.65,0 1.784,-0.295 3.111,-1.593 4.815,-1.782 0.024,-0.215 0.049,-0.434 0.071,-0.65 -0.08,-0.074 -0.24,-0.078 -0.27,-0.206 0.208,-0.009 0.27,-0.167 0.33,-0.325 0.244,-2.452 0.368,-4.935 0.368,-7.446 h 0.687 C 75.503,-33.872 41.633,0 0,0" /></g><g
         transform="translate(495.6074,324.8818)"
         id="g358"><path
           inkscape:connector-curvature="0"
           id="path360"
           style="fill:#004b1e;fill-opacity:1;fill-rule:nonzero;stroke:none"
           d="m 0,0 h 53.674 c -1.175,1.918 -3.929,3.011 -4.749,5.463 -0.23,0.688 -0.144,1.467 -0.328,2.145 -0.805,2.917 -2.945,4.941 -3.957,7.253 0.405,-0.488 1.506,-2.339 1.65,-1.652 -0.46,3.532 -4.524,3.302 -7.75,3.793 -0.776,0.121 -1.702,0.5 -2.307,0.496 -1.622,-0.018 -3.103,-1.407 -4.454,-1.317 -1.331,0.088 -1.863,1.366 -2.967,1.81 -1.51,0.609 -3.151,0.121 -3.791,1.484 -0.124,1.168 0.181,1.903 0.331,2.804 -2.736,0.307 -5.931,0.627 -8.735,0 C 15.558,22.043 14.752,21.402 13.81,21.287 11.814,21.049 10.434,21.526 9.36,22.112 8.594,20.536 6.495,20.122 5.567,18.486 5.131,17.717 5.328,16.485 4.742,15.849 4.245,15.304 3.519,15.491 2.764,15.19 0.912,14.443 -0.045,13.438 -1.024,11.894 -1.517,11.118 -2.204,10.107 -2.509,9.42 -3.439,7.328 -3.249,4.745 -3.5,2.167 c -0.107,-1.127 -0.727,-2.164 0,-3.298 0.251,-0.466 1.015,-0.414 1.481,-0.659 0.084,-0.618 0.62,-0.49 0.995,-0.825 0.363,-0.324 0.698,-0.722 1.024,-1.14 z" /></g><g
         transform="translate(531.4521,302.8188)"
         id="g362"><path
           inkscape:connector-curvature="0"
           id="path364"
           style="fill:#ba151b;fill-opacity:1;fill-rule:nonzero;stroke:none"
           d="M 0,0 V -53.44 H -15.324 V 0 H -29.765 V 15.325 H 14.638 V 0 Z" /></g><g
         transform="translate(564.7529,283.7607)"
         id="g366"><path
           inkscape:connector-curvature="0"
           id="path368"
           style="fill:#ba151b;fill-opacity:1;fill-rule:nonzero;stroke:none"
           d="m 0,0 c 0,-3.026 0.556,-5.855 1.67,-8.486 1.113,-2.633 2.652,-4.935 4.617,-6.91 1.965,-1.973 4.257,-3.519 6.877,-4.636 2.618,-1.119 5.435,-1.678 8.448,-1.678 3.011,0 5.828,0.556 8.449,1.67 2.618,1.113 4.911,2.652 6.876,4.617 l 10.904,-10.776 c -3.406,-3.385 -7.353,-6.037 -11.837,-7.956 -4.487,-1.918 -9.284,-2.879 -14.392,-2.879 -5.108,0 -9.907,0.967 -14.391,2.897 -4.487,1.932 -8.406,4.584 -11.758,7.957 -3.353,3.372 -5.989,7.302 -7.908,11.788 -1.92,4.486 -2.879,9.284 -2.879,14.392 0,5.108 0.959,9.905 2.879,14.392 1.919,4.485 4.555,8.415 7.908,11.788 3.352,3.372 7.271,6.025 11.758,7.957 4.484,1.931 9.283,2.898 14.391,2.898 5.108,0 9.905,-0.976 14.392,-2.929 4.484,-1.952 8.398,-4.587 11.738,-7.906 L 36.937,15.423 c -1.965,1.899 -4.258,3.422 -6.876,4.568 -2.621,1.145 -5.438,1.719 -8.449,1.719 -3.013,0 -5.83,-0.56 -8.448,-1.677 C 10.544,18.914 8.252,17.368 6.287,15.395 4.322,13.42 2.783,11.118 1.67,8.487 0.556,5.854 0,3.025 0,0" /></g><g
         transform="translate(621.5332,256.6484)"
         id="g370"><path
           inkscape:connector-curvature="0"
           id="path372"
           style="fill:#ba151b;fill-opacity:1;fill-rule:nonzero;stroke:none"
           d="m 0,0 c 0,-0.066 0.474,0.54 1.424,1.817 0.949,1.277 2.014,2.667 3.193,4.175 1.375,1.768 2.946,3.765 4.715,5.992 1.769,-1.245 3.568,-2.357 5.403,-3.339 1.572,-0.853 3.274,-1.606 5.108,-2.26 1.833,-0.656 3.569,-0.983 5.207,-0.983 0.982,0 1.979,0.148 2.996,0.443 1.015,0.295 1.931,0.703 2.751,1.227 0.817,0.524 1.488,1.146 2.014,1.867 0.523,0.72 0.785,1.505 0.785,2.358 0,2.029 -1.147,3.814 -3.438,5.353 -2.293,1.538 -5.108,2.963 -8.448,4.274 -2.097,0.85 -4.273,1.915 -6.533,3.192 -2.259,1.278 -4.323,2.816 -6.189,4.617 -1.866,1.801 -3.389,3.88 -4.568,6.239 -1.179,2.357 -1.768,5.009 -1.768,7.957 0,2.815 0.474,5.501 1.424,8.055 0.949,2.554 2.373,4.813 4.274,6.778 1.898,1.965 4.256,3.52 7.073,4.666 2.814,1.145 6.123,1.719 9.922,1.719 2.946,0 5.631,-0.36 8.054,-1.08 2.423,-0.721 4.618,-1.572 6.582,-2.554 1.965,-0.983 3.667,-2.014 5.109,-3.095 1.439,-1.08 2.652,-1.981 3.635,-2.701 L 39.687,42.438 c -0.197,0.13 -0.771,0.54 -1.719,1.228 -0.95,0.687 -2.113,1.407 -3.488,2.161 -1.375,0.752 -2.915,1.44 -4.617,2.063 -1.704,0.621 -3.471,0.933 -5.304,0.933 -1.769,0 -3.308,-0.476 -4.618,-1.425 -1.31,-0.95 -1.964,-2.08 -1.964,-3.389 0,-1.834 0.867,-3.487 2.603,-4.961 1.734,-1.474 4.567,-2.996 8.497,-4.568 1.899,-0.786 4.011,-1.768 6.336,-2.947 2.324,-1.179 4.485,-2.652 6.484,-4.421 1.997,-1.767 3.667,-3.88 5.01,-6.336 1.342,-2.456 2.014,-5.353 2.014,-8.693 0,-2.555 -0.525,-5.126 -1.572,-7.712 -1.048,-2.588 -2.571,-4.945 -4.568,-7.073 -1.999,-2.129 -4.437,-3.864 -7.318,-5.206 -2.883,-1.342 -6.125,-2.014 -9.726,-2.014 -3.21,0 -6.271,0.427 -9.184,1.276 -2.915,0.853 -5.535,1.85 -7.86,2.998 C 6.368,-4.504 4.436,-3.39 2.897,-2.309 1.358,-1.229 0.393,-0.459 0,0" /></g><g
         transform="translate(709.6494,274.5273)"
         id="g374"><path
           inkscape:connector-curvature="0"
           id="path376"
           style="fill:#ba151b;fill-opacity:1;fill-rule:nonzero;stroke:none"
           d="M 0,0 V 13.262 L -11.493,0 Z M -30.551,0.393 15.325,46.269 V 0.785 h 8.448 V -14.441 H 15.325 V -25.148 H 0 v 10.707 h -30.551 z" /></g><g
         transform="translate(757.6865,249.3789)"
         id="g378"><path
           inkscape:connector-curvature="0"
           id="path380"
           style="fill:#ba151b;fill-opacity:1;fill-rule:nonzero;stroke:none"
           d="M 0,0 H -15.324 V 68.765 H 29.078 V 53.44 H 0 V 42.143 H 24.265 V 26.818 H 0 Z" /></g></g><g
       transform="translate(-0.39561959,0.4729572)"
       id="g3493"><g
         transform="translate(-1.5000001,1.5000001)"
         id="g3177"><g
           id="text3089"
           style="font-size:24px;font-style:normal;font-variant:normal;font-weight:900;font-stretch:normal;text-align:start;line-height:125%;letter-spacing:0px;word-spacing:0px;writing-mode:lr-tb;text-anchor:start;fill:#000000;fill-opacity:1;stroke:none;font-family:Zeronero;-inkscape-font-specification:Zeronero Heavy"
           transform="matrix(1,0,0,-1,3.0000002,3.0000002)"><path
             inkscape:connector-curvature="0"
             id="path3223"
             d="m 596.28711,-387.39973 2.952,0 0,16.8 -2.952,0 0,-16.8" /><path
             inkscape:connector-curvature="0"
             id="path3225"
             d="m 626.20199,-373.67173 c 0.39999,0.176 0.80799,0.336 1.224,0.48 0.35199,0.128 0.71199,0.256 1.08,0.384 0.38399,0.112 0.71999,0.2 1.008,0.264 0.33599,0.08 0.63199,0.088 0.888,0.024 0.25599,-0.08 0.47199,-0.192 0.648,-0.336 0.17599,-0.144 0.30399,-0.312 0.384,-0.504 0.096,-0.192 0.14399,-0.368 0.144,-0.528 -10e-6,-0.272 -0.20001,-0.576 -0.6,-0.912 -0.40001,-0.352 -1.11201,-0.704 -2.136,-1.056 -1.24801,-0.432 -2.24001,-0.96 -2.976,-1.584 -0.73601,-0.62399 -1.104,-1.40799 -1.104,-2.352 0,-0.49599 0.088,-0.97599 0.264,-1.44 0.19199,-0.47999 0.48799,-0.89599 0.888,-1.248 0.39999,-0.35199 0.90399,-0.61599 1.512,-0.792 0.62399,-0.17599 1.36799,-0.22399 2.232,-0.144 0.92799,0.08 1.75999,0.24801 2.496,0.504 0.75199,0.25601 1.43199,0.54401 2.04,0.864 -0.25601,0.46401 -0.48001,0.88801 -0.672,1.272 -0.17601,0.36801 -0.37601,0.76001 -0.6,1.176 -0.24001,-0.08 -0.52001,-0.18399 -0.84,-0.312 -0.32001,-0.14399 -0.64801,-0.27999 -0.984,-0.408 -0.33601,-0.12799 -0.68001,-0.23199 -1.032,-0.312 -0.35201,-0.096 -0.68801,-0.14399 -1.008,-0.144 -0.36801,1e-5 -0.65601,0.088 -0.864,0.264 -0.20801,0.17601 -0.31201,0.42401 -0.312,0.744 -10e-6,0.32001 0.13599,0.58401 0.408,0.792 0.28799,0.20801 0.78399,0.44001 1.488,0.696 0.65599,0.22401 1.27999,0.47201 1.872,0.744 0.60799,0.27201 1.13599,0.584 1.584,0.936 0.46399,0.336 0.82399,0.736 1.08,1.2 0.27199,0.464 0.40799,1 0.408,1.608 -10e-6,0.544 -0.11201,1.064 -0.336,1.56 -0.22401,0.496 -0.56001,0.928 -1.008,1.296 -0.44801,0.368 -1.00801,0.648 -1.68,0.84 -0.67201,0.208 -1.45601,0.272 -2.352,0.192 -0.96001,-0.08 -1.82401,-0.264 -2.592,-0.552 -0.75201,-0.288 -1.38401,-0.592 -1.896,-0.912 l 1.344,-2.304" /><path
             inkscape:connector-curvature="0"
             id="path3227"
             d="m 649.28061,-376.62373 0.48,6.024 -2.568,0 -0.24,-1.368 c -0.28801,0.368 -0.62401,0.68 -1.008,0.936 -0.36801,0.256 -0.75201,0.464 -1.152,0.624 -0.40001,0.176 -0.79201,0.304 -1.176,0.384 -0.38401,0.08 -0.71201,0.12 -0.984,0.12 -1.00801,0 -1.92,-0.192 -2.736,-0.576 -0.816,-0.384 -1.512,-0.912 -2.088,-1.584 -0.576,-0.672 -1.024,-1.456 -1.344,-2.352 -0.304,-0.896 -0.456,-1.856 -0.456,-2.88 l 0,-5.304 3.024,0 0,5.304 c 0,0.608 0.072,1.176 0.216,1.704 0.144,0.528 0.36,0.992 0.648,1.392 0.288,0.4 0.656,0.712 1.104,0.936 0.464,0.224 1.00799,0.336 1.632,0.336 0.62399,0 1.15999,-0.112 1.608,-0.336 0.46399,-0.224 0.83999,-0.536 1.128,-0.936 0.28799,-0.4 0.49599,-0.864 0.624,-1.392 0.14399,-0.528 0.21599,-1.096 0.216,-1.704 l 0,-5.304 3.072,0 0,5.976" /><path
             inkscape:connector-curvature="0"
             id="path3229"
             d="m 651.85349,-382.59973 2.592,0 0.24,1.08 c 0.25599,-0.27199 0.56799,-0.51999 0.936,-0.744 0.38399,-0.23999 0.77599,-0.43999 1.176,-0.6 0.41599,-0.17599 0.81599,-0.31199 1.2,-0.408 0.39999,-0.096 0.75999,-0.14399 1.08,-0.144 0.92799,10e-6 1.79999,0.18401 2.616,0.552 0.83198,0.35201 1.55198,0.83201 2.16,1.44 0.62398,0.60801 1.11198,1.32801 1.464,2.16 0.35198,0.83201 0.52798,1.71201 0.528,2.64 -2e-5,0.928 -0.17602,1.8 -0.528,2.616 -0.35202,0.816 -0.84002,1.536 -1.464,2.16 -0.60802,0.608 -1.32802,1.088 -2.16,1.44 -0.81601,0.352 -1.68801,0.528 -2.616,0.528 -0.25601,0 -0.55201,-0.032 -0.888,-0.096 -0.33601,-0.064 -0.67201,-0.16 -1.008,-0.288 -0.33601,-0.112 -0.66401,-0.256 -0.984,-0.432 -0.32001,-0.176 -0.59201,-0.376 -0.816,-0.6 l 0,5.832 -3.048,0 0,-11.16 -0.48,-5.976 m 10.968,5.976 c -2e-5,-0.51199 -0.10402,-0.99199 -0.312,-1.44 -0.19202,-0.46399 -0.45601,-0.86399 -0.792,-1.2 -0.33601,-0.35199 -0.73601,-0.62399 -1.2,-0.816 -0.44801,-0.20799 -0.92801,-0.31199 -1.44,-0.312 -0.51201,10e-6 -0.99201,0.10401 -1.44,0.312 -0.44801,0.19201 -0.84001,0.46401 -1.176,0.816 -0.33601,0.33601 -0.60001,0.73601 -0.792,1.2 -0.19201,0.44801 -0.28801,0.93601 -0.288,1.464 0.016,0.528 0.11999,1.016 0.312,1.464 0.19199,0.448 0.45599,0.84 0.792,1.176 0.33599,0.32 0.71999,0.576 1.152,0.768 0.44799,0.176 0.92799,0.264 1.44,0.264 0.51199,0 0.99199,-0.096 1.44,-0.288 0.46399,-0.192 0.86399,-0.456 1.2,-0.792 0.33599,-0.336 0.59998,-0.728 0.792,-1.176 0.20798,-0.448 0.31198,-0.928 0.312,-1.44" /><path
             inkscape:connector-curvature="0"
             id="path3231"
             d="m 667.93161,-382.59973 2.592,0 0.24,1.08 c 0.256,-0.27199 0.568,-0.51999 0.936,-0.744 0.384,-0.23999 0.776,-0.43999 1.176,-0.6 0.416,-0.17599 0.81599,-0.31199 1.2,-0.408 0.39999,-0.096 0.75999,-0.14399 1.08,-0.144 0.92799,10e-6 1.79999,0.18401 2.616,0.552 0.83199,0.35201 1.55199,0.83201 2.16,1.44 0.62399,0.60801 1.11199,1.32801 1.464,2.16 0.35199,0.83201 0.52799,1.71201 0.528,2.64 -1e-5,0.928 -0.17601,1.8 -0.528,2.616 -0.35201,0.816 -0.84001,1.536 -1.464,2.16 -0.60801,0.608 -1.32801,1.088 -2.16,1.44 -0.81601,0.352 -1.68801,0.528 -2.616,0.528 -0.25601,0 -0.55201,-0.032 -0.888,-0.096 -0.33601,-0.064 -0.67201,-0.16 -1.008,-0.288 -0.336,-0.112 -0.664,-0.256 -0.984,-0.432 -0.32,-0.176 -0.592,-0.376 -0.816,-0.6 l 0,5.832 -3.048,0 0,-11.16 -0.48,-5.976 m 10.968,5.976 c -1e-5,-0.51199 -0.10401,-0.99199 -0.312,-1.44 -0.19201,-0.46399 -0.45601,-0.86399 -0.792,-1.2 -0.33601,-0.35199 -0.73601,-0.62399 -1.2,-0.816 -0.44801,-0.20799 -0.92801,-0.31199 -1.44,-0.312 -0.51201,10e-6 -0.99201,0.10401 -1.44,0.312 -0.448,0.19201 -0.84,0.46401 -1.176,0.816 -0.336,0.33601 -0.6,0.73601 -0.792,1.2 -0.192,0.44801 -0.288,0.93601 -0.288,1.464 0.016,0.528 0.12,1.016 0.312,1.464 0.192,0.448 0.456,0.84 0.792,1.176 0.336,0.32 0.72,0.576 1.152,0.768 0.44799,0.176 0.92799,0.264 1.44,0.264 0.51199,0 0.99199,-0.096 1.44,-0.288 0.46399,-0.192 0.86399,-0.456 1.2,-0.792 0.33599,-0.336 0.59999,-0.728 0.792,-1.176 0.20799,-0.448 0.31199,-0.928 0.312,-1.44" /><path
             inkscape:connector-curvature="0"
             id="path3233"
             d="m 683.47011,-376.64773 c 0,-0.92799 0.176,-1.79999 0.528,-2.616 0.352,-0.83199 0.832,-1.55199 1.44,-2.16 0.624,-0.62399 1.344,-1.11199 2.16,-1.464 0.816,-0.35199 1.68799,-0.52799 2.616,-0.528 0.92799,10e-6 1.79999,0.17601 2.616,0.528 0.83199,0.35201 1.55199,0.84001 2.16,1.464 0.62399,0.60801 1.11199,1.32801 1.464,2.16 0.35199,0.81601 0.52799,1.68801 0.528,2.616 -1e-5,0.928 -0.17601,1.8 -0.528,2.616 -0.35201,0.816 -0.84001,1.536 -1.464,2.16 -0.60801,0.608 -1.32801,1.088 -2.16,1.44 -0.81601,0.352 -1.68801,0.528 -2.616,0.528 -0.92801,0 -1.8,-0.176 -2.616,-0.528 -0.816,-0.352 -1.536,-0.832 -2.16,-1.44 -0.608,-0.624 -1.088,-1.344 -1.44,-2.16 -0.352,-0.816 -0.528,-1.688 -0.528,-2.616 m 3.024,0 c 0,0.512 0.096,1 0.288,1.464 0.192,0.448 0.456,0.84 0.792,1.176 0.336,0.336 0.728,0.6 1.176,0.792 0.46399,0.192 0.95199,0.288 1.464,0.288 0.51199,0 0.99199,-0.096 1.44,-0.288 0.44799,-0.192 0.83999,-0.456 1.176,-0.792 0.33599,-0.336 0.59999,-0.728 0.792,-1.176 0.19199,-0.464 0.28799,-0.952 0.288,-1.464 -10e-6,-0.51199 -0.096,-0.99199 -0.288,-1.44 -0.19201,-0.46399 -0.45601,-0.86399 -0.792,-1.2 -0.33601,-0.33599 -0.72801,-0.59999 -1.176,-0.792 -0.44801,-0.19199 -0.92801,-0.28799 -1.44,-0.288 -0.51201,10e-6 -1.00001,0.096 -1.464,0.288 -0.448,0.19201 -0.84,0.45601 -1.176,0.792 -0.336,0.33601 -0.6,0.73601 -0.792,1.2 -0.192,0.44801 -0.288,0.92801 -0.288,1.44" /><path
             inkscape:connector-curvature="0"
             id="path3235"
             d="m 702.68061,-370.59973 -3.048,0 0,-5.952 -0.504,-6.048 2.592,0 0.216,1.224 c 0.544,-0.57599 1.152,-1.04799 1.824,-1.416 0.688,-0.38399 1.55999,-0.59199 2.616,-0.624 0.36799,-0.016 0.72799,0.016 1.08,0.096 0.35199,0.064 0.68799,0.14401 1.008,0.24 -0.12801,0.27201 -0.25601,0.52801 -0.384,0.768 -0.11201,0.22401 -0.22401,0.44801 -0.336,0.672 -0.11201,0.20801 -0.22401,0.42401 -0.336,0.648 -0.11201,0.20801 -0.22401,0.44001 -0.336,0.696 -0.12801,-0.032 -0.24801,-0.048 -0.36,-0.048 -0.096,-0.016 -0.20801,-0.024 -0.336,-0.024 -0.51201,10e-6 -0.99201,0.096 -1.44,0.288 -0.44801,0.19201 -0.84,0.45601 -1.176,0.792 -0.336,0.33601 -0.6,0.73601 -0.792,1.2 -0.192,0.44801 -0.288,0.92801 -0.288,1.44 l 0,6.048" /><path
             inkscape:connector-curvature="0"
             id="path3237"
             d="m 713.40374,-382.59973 2.952,0 c -0.032,0.51201 -0.072,0.96001 -0.12,1.344 -0.048,0.36801 -0.088,0.78401 -0.12,1.248 l -2.712,0.312 0,3.336 c -10e-6,0.864 0.14399,1.672 0.432,2.424 0.30399,0.736 0.72799,1.384 1.272,1.944 l -2.112,2.112 c -0.81601,-0.848 -1.45601,-1.824 -1.92,-2.928 -0.464,-1.104 -0.696,-2.28 -0.696,-3.528 l 0,-11.088 3.024,0 0,4.824" /><path
             inkscape:connector-curvature="0"
             id="path3239"
             d="m 744.66936,-382.59973 2.952,0 c -0.032,0.51201 -0.072,0.96001 -0.12,1.344 -0.048,0.36801 -0.088,0.78401 -0.12,1.248 l -2.712,0.312 0,3.336 c 0,0.864 0.144,1.672 0.432,2.424 0.304,0.736 0.728,1.384 1.272,1.944 l -2.112,2.112 c -0.816,-0.848 -1.456,-1.824 -1.92,-2.928 -0.464,-1.104 -0.696,-2.28 -0.696,-3.528 l 0,-11.088 3.024,0 0,4.824" /><path
             inkscape:connector-curvature="0"
             id="path3241"
             d="m 760.56636,-376.64773 c -10e-6,-0.51199 -0.096,-0.99199 -0.288,-1.44 -0.19201,-0.46399 -0.45601,-0.86399 -0.792,-1.2 -0.33601,-0.33599 -0.72801,-0.59999 -1.176,-0.792 -0.44801,-0.19199 -0.92801,-0.28799 -1.44,-0.288 -0.51201,10e-6 -0.99201,0.096 -1.44,0.288 -0.432,0.19201 -0.816,0.44801 -1.152,0.768 -0.336,0.32001 -0.6,0.69601 -0.792,1.128 -0.192,0.43201 -0.296,0.89601 -0.312,1.392 l 0,6.192 -3.048,0 0,-17.208 3.048,0 0,5.832 c 0.4,-0.35199 0.888,-0.67199 1.464,-0.96 0.576,-0.28799 1.31999,-0.44799 2.232,-0.48 0.92799,-0.032 1.79999,0.12801 2.616,0.48 0.83199,0.33601 1.55199,0.81601 2.16,1.44 0.62399,0.62401 1.11199,1.36001 1.464,2.208 0.35199,0.83201 0.52799,1.71201 0.528,2.64 l 0,6.048 -3.072,0 0,-6.048 0,0" /><path
             inkscape:connector-curvature="0"
             id="path3243"
             d="m 768.78486,-375.92773 c 0.096,0.384 0.272,0.76 0.528,1.128 0.256,0.352 0.568,0.672 0.936,0.96 0.384,0.272 0.824,0.496 1.32,0.672 0.49599,0.16 1.04799,0.24 1.656,0.24 0.79999,0 1.43999,-0.072 1.92,-0.216 0.49599,-0.144 0.86399,-0.28 1.104,-0.408 l 1.944,1.944 c -0.64001,0.544 -1.41601,0.96 -2.328,1.248 -0.89601,0.304 -1.77601,0.456 -2.64,0.456 -1.12001,0 -2.144,-0.176 -3.072,-0.528 -0.928,-0.352 -1.72,-0.832 -2.376,-1.44 -0.656,-0.624 -1.168,-1.344 -1.536,-2.16 -0.368,-0.816 -0.552,-1.688 -0.552,-2.616 0,-0.92799 0.176,-1.79999 0.528,-2.616 0.352,-0.83199 0.832,-1.55199 1.44,-2.16 0.624,-0.62399 1.344,-1.11199 2.16,-1.464 0.816,-0.35199 1.68799,-0.52799 2.616,-0.528 0.92799,10e-6 1.79999,0.17601 2.616,0.528 0.83199,0.35201 1.55199,0.84001 2.16,1.464 0.62399,0.60801 1.11199,1.32801 1.464,2.16 0.35199,0.81601 0.52799,1.68801 0.528,2.616 l 0,0.72 -10.416,0 m 3.648,-5.088 c -0.12801,1e-5 -0.36001,0.008 -0.696,0.024 -0.33601,0.016 -0.696,0.10401 -1.08,0.264 -0.384,0.16001 -0.76,0.42401 -1.128,0.792 -0.352,0.36801 -0.624,0.89601 -0.816,1.584 l 7.392,0 c -0.19201,-0.62399 -0.47201,-1.11199 -0.84,-1.464 -0.35201,-0.36799 -0.72001,-0.63999 -1.104,-0.816 -0.38401,-0.17599 -0.73601,-0.27999 -1.056,-0.312 -0.32001,-0.048 -0.54401,-0.072 -0.672,-0.072" /></g><g
           id="text3093"
           style="font-size:24px;font-style:normal;font-variant:normal;font-weight:900;font-stretch:normal;text-align:start;line-height:125%;letter-spacing:0px;word-spacing:0px;writing-mode:lr-tb;text-anchor:start;fill:#000000;fill-opacity:1;stroke:none;font-family:Zeronero;-inkscape-font-specification:Zeronero Heavy"
           transform="matrix(1,0,0,-1,3.0000002,3.0000002)"><path
             inkscape:connector-curvature="0"
             id="path3202"
             d="m 674.99024,-355.44595 3.024,0 0,12 -3.024,0 0,-12 m 0.024,-5.208 3,0 0,2.184 -3,0 0,-2.184" /><path
             inkscape:connector-curvature="0"
             id="path3204"
             d="m 694.78124,-343.20595 -11.016,-7.248 0,7.008 -3.024,0 0,-12.744 11.016,7.68 0,-6.936 3.024,0 0,12.24" /><path
             inkscape:connector-curvature="0"
             id="path3206"
             d="m 698.66211,-355.44595 3.024,0 0,12 -3.024,0 0,-12 m 0.024,-5.208 3,0 0,2.184 -3,0 0,-2.184" /><path
             inkscape:connector-curvature="0"
             id="path3208"
             d="m 708.24749,-355.44595 2.952,0 c -0.032,0.51201 -0.072,0.96001 -0.12,1.344 -0.048,0.36801 -0.088,0.78401 -0.12,1.248 l -2.712,0.312 0,3.336 c -10e-6,0.864 0.14399,1.672 0.432,2.424 0.30399,0.736 0.72799,1.384 1.272,1.944 l -2.112,2.112 c -0.81601,-0.848 -1.45601,-1.824 -1.92,-2.928 -0.464,-1.104 -0.696,-2.28 -0.696,-3.528 l 0,-11.088 3.024,0 0,4.824" /><path
             inkscape:connector-curvature="0"
             id="path3210"
             d="m 714.59961,-355.44595 3.024,0 0,12 -3.024,0 0,-12 m 0.024,-5.208 3,0 0,2.184 -3,0 0,-2.184" /><path
             inkscape:connector-curvature="0"
             id="path3212"
             d="m 720.28986,-349.49395 c 0,-0.928 0.176,-1.8 0.528,-2.616 0.352,-0.83199 0.832,-1.55199 1.44,-2.16 0.624,-0.62399 1.344,-1.11199 2.16,-1.464 0.816,-0.35199 1.69599,-0.52799 2.64,-0.528 0.92799,1e-5 1.79999,0.17601 2.616,0.528 0.81599,0.35201 1.52799,0.84001 2.136,1.464 0.62399,0.60801 1.11199,1.32801 1.464,2.16 0.35199,0.816 0.52799,1.696 0.528,2.64 l 0.504,6.024 -2.592,0 -0.24,-1.32 c -0.56001,0.56 -1.20801,1.024 -1.944,1.392 -0.72001,0.384 -1.54401,0.592 -2.472,0.624 -0.94401,0.032 -1.824,-0.128 -2.64,-0.48 -0.816,-0.352 -1.536,-0.832 -2.16,-1.44 -0.608,-0.624 -1.088,-1.352 -1.44,-2.184 -0.352,-0.832 -0.528,-1.712 -0.528,-2.64 m 3.024,0 c 0,0.512 0.096,1 0.288,1.464 0.208,0.448 0.48,0.84 0.816,1.176 0.336,0.336 0.728,0.6 1.176,0.792 0.46399,0.192 0.95199,0.288 1.464,0.288 0.51199,0 0.99199,-0.096 1.44,-0.288 0.44799,-0.192 0.83999,-0.456 1.176,-0.792 0.33599,-0.336 0.59999,-0.728 0.792,-1.176 0.19199,-0.464 0.28799,-0.952 0.288,-1.464 -10e-6,-0.512 -0.096,-0.992 -0.288,-1.44 -0.19201,-0.464 -0.45601,-0.864 -0.792,-1.2 -0.33601,-0.33599 -0.72801,-0.59999 -1.176,-0.792 -0.44801,-0.19199 -0.92801,-0.28799 -1.44,-0.288 -0.51201,1e-5 -1.00001,0.096 -1.464,0.288 -0.448,0.19201 -0.84,0.45601 -1.176,0.792 -0.336,0.336 -0.608,0.736 -0.816,1.2 -0.192,0.448 -0.288,0.928 -0.288,1.44" /><path
             inkscape:connector-curvature="0"
             id="path3214"
             d="m 739.41936,-355.44595 2.952,0 c -0.032,0.51201 -0.072,0.96001 -0.12,1.344 -0.048,0.36801 -0.088,0.78401 -0.12,1.248 l -2.712,0.312 0,3.336 c 0,0.864 0.144,1.672 0.432,2.424 0.304,0.736 0.728,1.384 1.272,1.944 l -2.112,2.112 c -0.816,-0.848 -1.456,-1.824 -1.92,-2.928 -0.464,-1.104 -0.696,-2.28 -0.696,-3.528 l 0,-11.088 3.024,0 0,4.824" /><path
             inkscape:connector-curvature="0"
             id="path3216"
             d="m 745.77149,-355.44595 3.024,0 0,12 -3.024,0 0,-12 m 0.024,-5.208 3,0 0,2.184 -3,0 0,-2.184" /><path
             inkscape:connector-curvature="0"
             id="path3218"
             d="m 751.35299,-355.44595 3.288,0 3.6,7.344 c 0.25599,-0.496 0.53599,-1.064 0.84,-1.704 0.30399,-0.64 0.61599,-1.288 0.936,-1.944 0.31999,-0.67199 0.63199,-1.32799 0.936,-1.968 0.31999,-0.63999 0.61598,-1.21599 0.888,-1.728 l 3.336,0 c -1.21602,2.16001 -2.37602,4.28 -3.48,6.36 -1.10401,2.064 -2.25601,4.16 -3.456,6.288 l -6.888,-12.648" /><path
             inkscape:connector-curvature="0"
             id="path3220"
             d="m 768.78486,-348.77395 c 0.096,0.384 0.272,0.76 0.528,1.128 0.256,0.352 0.568,0.672 0.936,0.96 0.384,0.272 0.824,0.496 1.32,0.672 0.49599,0.16 1.04799,0.24 1.656,0.24 0.79999,0 1.43999,-0.072 1.92,-0.216 0.49599,-0.144 0.86399,-0.28 1.104,-0.408 l 1.944,1.944 c -0.64001,0.544 -1.41601,0.96 -2.328,1.248 -0.89601,0.304 -1.77601,0.456 -2.64,0.456 -1.12001,0 -2.144,-0.176 -3.072,-0.528 -0.928,-0.352 -1.72,-0.832 -2.376,-1.44 -0.656,-0.624 -1.168,-1.344 -1.536,-2.16 -0.368,-0.816 -0.552,-1.688 -0.552,-2.616 0,-0.928 0.176,-1.8 0.528,-2.616 0.352,-0.83199 0.832,-1.55199 1.44,-2.16 0.624,-0.62399 1.344,-1.11199 2.16,-1.464 0.816,-0.35199 1.68799,-0.52799 2.616,-0.528 0.92799,1e-5 1.79999,0.17601 2.616,0.528 0.83199,0.35201 1.55199,0.84001 2.16,1.464 0.62399,0.60801 1.11199,1.32801 1.464,2.16 0.35199,0.816 0.52799,1.688 0.528,2.616 l 0,0.72 -10.416,0 m 3.648,-5.088 c -0.12801,10e-6 -0.36001,0.008 -0.696,0.024 -0.33601,0.016 -0.696,0.10401 -1.08,0.264 -0.384,0.16001 -0.76,0.42401 -1.128,0.792 -0.352,0.36801 -0.624,0.89601 -0.816,1.584 l 7.392,0 c -0.19201,-0.62399 -0.47201,-1.11199 -0.84,-1.464 -0.35201,-0.36799 -0.72001,-0.63999 -1.104,-0.816 -0.38401,-0.17599 -0.73601,-0.27999 -1.056,-0.312 -0.32001,-0.048 -0.54401,-0.072 -0.672,-0.072" /></g><g
           id="g3142"
           transform="matrix(0.88045666,0,0,0.88045666,86.943957,51.897384)"><g
             id="g3129"><g
               id="g3117"><g
                 id="g3097"
                 transform="matrix(0.28486697,0,0,0.28486697,585.20675,349.72713)"
                 style="fill:#000000;fill-opacity:1"><path
                   d="M 0,0 V -53.44 H -15.324 V 0 H -29.765 V 15.325 H 14.638 V 0 z"
                   style="fill:#000000;fill-opacity:1;fill-rule:nonzero;stroke:none"
                   id="path3099"
                   inkscape:connector-curvature="0" /></g><g
                 id="g3101"
                 transform="matrix(0.28486697,0,0,0.28486697,594.69305,344.29811)"
                 style="fill:#000000;fill-opacity:1"><path
                   d="m 0,0 c 0,-3.026 0.556,-5.855 1.67,-8.486 1.113,-2.633 2.652,-4.935 4.617,-6.91 1.965,-1.973 4.257,-3.519 6.877,-4.636 2.618,-1.119 5.435,-1.678 8.448,-1.678 3.011,0 5.828,0.556 8.449,1.67 2.618,1.113 4.911,2.652 6.876,4.617 l 10.904,-10.776 c -3.406,-3.385 -7.353,-6.037 -11.837,-7.956 -4.487,-1.918 -9.284,-2.879 -14.392,-2.879 -5.108,0 -9.907,0.967 -14.391,2.897 -4.487,1.932 -8.406,4.584 -11.758,7.957 -3.353,3.372 -5.989,7.302 -7.908,11.788 -1.92,4.486 -2.879,9.284 -2.879,14.392 0,5.108 0.959,9.905 2.879,14.392 1.919,4.485 4.555,8.415 7.908,11.788 3.352,3.372 7.271,6.025 11.758,7.957 4.484,1.931 9.283,2.898 14.391,2.898 5.108,0 9.905,-0.976 14.392,-2.929 4.484,-1.952 8.398,-4.587 11.738,-7.906 L 36.937,15.423 c -1.965,1.899 -4.258,3.422 -6.876,4.568 -2.621,1.145 -5.438,1.719 -8.449,1.719 -3.013,0 -5.83,-0.56 -8.448,-1.677 C 10.544,18.914 8.252,17.368 6.287,15.395 4.322,13.42 2.783,11.118 1.67,8.487 0.556,5.854 0,3.025 0,0"
                   style="fill:#000000;fill-opacity:1;fill-rule:nonzero;stroke:none"
                   id="path3103"
                   inkscape:connector-curvature="0" /></g><g
                 id="g3105"
                 transform="matrix(0.28486697,0,0,0.28486697,610.86788,336.57471)"
                 style="fill:#000000;fill-opacity:1"><path
                   d="m 0,0 c 0,-0.066 0.474,0.54 1.424,1.817 0.949,1.277 2.014,2.667 3.193,4.175 1.375,1.768 2.946,3.765 4.715,5.992 1.769,-1.245 3.568,-2.357 5.403,-3.339 1.572,-0.853 3.274,-1.606 5.108,-2.26 1.833,-0.656 3.569,-0.983 5.207,-0.983 0.982,0 1.979,0.148 2.996,0.443 1.015,0.295 1.931,0.703 2.751,1.227 0.817,0.524 1.488,1.146 2.014,1.867 0.523,0.72 0.785,1.505 0.785,2.358 0,2.029 -1.147,3.814 -3.438,5.353 -2.293,1.538 -5.108,2.963 -8.448,4.274 -2.097,0.85 -4.273,1.915 -6.533,3.192 -2.259,1.278 -4.323,2.816 -6.189,4.617 -1.866,1.801 -3.389,3.88 -4.568,6.239 -1.179,2.357 -1.768,5.009 -1.768,7.957 0,2.815 0.474,5.501 1.424,8.055 0.949,2.554 2.373,4.813 4.274,6.778 1.898,1.965 4.256,3.52 7.073,4.666 2.814,1.145 6.123,1.719 9.922,1.719 2.946,0 5.631,-0.36 8.054,-1.08 2.423,-0.721 4.618,-1.572 6.582,-2.554 1.965,-0.983 3.667,-2.014 5.109,-3.095 1.439,-1.08 2.652,-1.981 3.635,-2.701 L 39.687,42.438 c -0.197,0.13 -0.771,0.54 -1.719,1.228 -0.95,0.687 -2.113,1.407 -3.488,2.161 -1.375,0.752 -2.915,1.44 -4.617,2.063 -1.704,0.621 -3.471,0.933 -5.304,0.933 -1.769,0 -3.308,-0.476 -4.618,-1.425 -1.31,-0.95 -1.964,-2.08 -1.964,-3.389 0,-1.834 0.867,-3.487 2.603,-4.961 1.734,-1.474 4.567,-2.996 8.497,-4.568 1.899,-0.786 4.011,-1.768 6.336,-2.947 2.324,-1.179 4.485,-2.652 6.484,-4.421 1.997,-1.767 3.667,-3.88 5.01,-6.336 1.342,-2.456 2.014,-5.353 2.014,-8.693 0,-2.555 -0.525,-5.126 -1.572,-7.712 -1.048,-2.588 -2.571,-4.945 -4.568,-7.073 -1.999,-2.129 -4.437,-3.864 -7.318,-5.206 -2.883,-1.342 -6.125,-2.014 -9.726,-2.014 -3.21,0 -6.271,0.427 -9.184,1.276 -2.915,0.853 -5.535,1.85 -7.86,2.998 C 6.368,-4.504 4.436,-3.39 2.897,-2.309 1.358,-1.229 0.393,-0.459 0,0"
                   style="fill:#000000;fill-opacity:1;fill-rule:nonzero;stroke:none"
                   id="path3107"
                   inkscape:connector-curvature="0" /></g><g
                 id="g3109"
                 transform="matrix(0.28486697,0,0,0.28486697,635.96928,341.66782)"
                 style="fill:#000000;fill-opacity:1"><path
                   d="M 0,0 V 13.262 L -11.493,0 z M -30.551,0.393 15.325,46.269 V 0.785 h 8.448 V -14.441 H 15.325 V -25.148 H 0 v 10.707 h -30.551 z"
                   style="fill:#000000;fill-opacity:1;fill-rule:nonzero;stroke:none"
                   id="path3111"
                   inkscape:connector-curvature="0" /></g><g
                 id="g3113"
                 transform="matrix(0.28486697,0,0,0.28486697,649.65346,334.50387)"
                 style="fill:#000000;fill-opacity:1"><path
                   d="M 0,0 H -15.324 V 68.765 H 29.078 V 53.44 H 0 V 42.143 H 24.265 V 26.818 H 0 z"
                   style="fill:#000000;fill-opacity:1;fill-rule:nonzero;stroke:none"
                   id="path3115"
                   inkscape:connector-curvature="0" /></g></g></g></g></g></g></g></svg>